<svg width="44" height="44" viewBox="0 0 44 44" fill="none" xmlns="http://www.w3.org/2000/svg">
<path d="M5.66648 42.9892V35.5342C5.66648 32.8652 4.96718 31.4771 3.59379 29.1566C1.91954 26.3219 1.02485 23.0948 1.00051 19.8027C0.976167 16.5106 1.82303 13.2706 3.45518 10.4114C5.08733 7.55228 7.4467 5.17572 10.2939 3.52283C13.1411 1.86995 16.3749 0.999575 19.6671 1C24.6169 1.00056 29.3639 2.96683 32.8644 6.4665C36.3648 9.96616 38.3322 14.7127 38.3338 19.6626C38.3338 20.8806 38.3338 21.4895 38.3842 21.8297C38.506 22.6445 38.8882 23.3459 39.2599 24.0725L43 31.3259L40.06 32.7959C39.2095 33.2201 38.7832 33.4322 38.4871 33.8249C38.191 34.2176 38.107 34.6627 37.9411 35.5468L37.9243 35.635C37.54 37.6678 37.1179 39.9106 35.9294 41.326C35.5094 41.8237 34.9886 42.229 34.4027 42.5167C33.4346 42.9892 32.2439 42.9892 29.8625 42.9892C28.76 42.9892 27.6554 43.0144 26.5529 42.9892C23.9426 42.9241 22.0002 40.7275 22.0002 38.1802" stroke="#2B4DA2" stroke-width="2" stroke-linecap="round" stroke-linejoin="round"/>
<path d="M17.5002 9L22.5002 7L26.5002 11.5L31.0002 15L27.0002 19.5L25.0002 23C25.0002 23 21.2671 25.5992 18.5002 26C14.7035 26.55 9 23.5 9 23.5L7 19.5L10.0002 17V11.5L15.5002 9.5L17.5002 9Z" fill="#FACD5B"/>
<path d="M27.0155 18.917C26.1209 18.917 25.304 18.5768 24.6845 18.0203M27.0155 18.917C27.0155 21.3236 25.6211 23.6084 22.9373 23.6084C20.2535 23.6084 18.8591 25.8932 18.8591 28.2998M27.0155 18.917C31.5304 18.917 31.5304 11.88 27.0155 11.88C26.6039 11.8814 26.214 11.9479 25.8458 12.0795C26.0663 6.83372 18.5042 5.40993 16.7907 10.3239M16.7907 10.3239C18.0401 11.166 18.8591 12.5982 18.8591 14.2236M16.7907 10.3239C12.9015 7.69891 7.71872 12.4092 10.1841 16.6091C6.04714 17.2286 6.48813 23.6084 10.7028 23.6084C11.2648 23.6082 11.8183 23.4721 12.3163 23.2117C12.8144 22.9514 13.2421 22.5745 13.563 22.1132" stroke="#2B4DA2" stroke-width="2" stroke-linecap="round" stroke-linejoin="round"/>
</svg>
