<svg width="52" height="46" viewBox="0 0 52 46" fill="none" xmlns="http://www.w3.org/2000/svg">
<path d="M15.9942 12.3892H35.1226M15.9942 21.5H35.1226M15.9942 30.6109H35.1226M7.95823 31.9783C8.32088 31.9783 8.66869 31.8342 8.92513 31.5778C9.18157 31.3214 9.32563 30.9735 9.32563 30.6109C9.32563 30.2482 9.18157 29.9004 8.92513 29.644C8.66869 29.3876 8.32088 29.2435 7.95823 29.2435C7.59557 29.2435 7.24776 29.3876 6.99132 29.644C6.73489 29.9004 6.59082 30.2482 6.59082 30.6109C6.59082 30.9735 6.73489 31.3214 6.99132 31.5778C7.24776 31.8342 7.59557 31.9783 7.95823 31.9783Z" stroke="#128454" stroke-width="2" stroke-linecap="round" stroke-linejoin="round"/>
<path d="M28.7027 1H14.2973C6.9534 1 1 6.9534 1 14.2973V28.7027C1 36.0466 6.9534 42 14.2973 42H28.7027C36.0466 42 42 36.0466 42 28.7027V14.2973C42 6.9534 36.0466 1 28.7027 1Z" stroke="#128454" stroke-width="2"/>
<path d="M34.5533 23.193H38.1076L40.181 21.1196L43.7354 22.3044L49.8074 26.7474L50.696 37.2623L48.0302 42.5938L41.662 44.9634L35.2938 42.5938L28.1851 36.0775L29.0736 33.4118L33.8128 34.7446L34.5533 23.193Z" fill="#FACD5B"/>
<path d="M40.1104 19.6385C38.8145 19.6385 37.6927 20.3954 37.16 21.4921C36.8014 21.3582 36.4173 21.2861 36.0126 21.2861C34.2045 21.2861 32.7344 22.7638 32.7344 24.5813V33.1025L32.5961 32.9634C31.3155 31.6763 29.241 31.6763 27.9604 32.9634C26.6799 34.2506 26.6799 36.3358 27.9604 37.623L32.4526 42.1385C34.9113 44.6098 38.2459 46 41.7239 46H42.5691C42.6459 46 42.7228 45.9948 42.7996 45.9794C47.4967 45.6602 51.2513 41.8913 51.5638 37.1699C51.5791 37.0927 51.5843 37.0155 51.5843 36.9382V27.8765C51.5843 26.059 50.1142 24.5813 48.306 24.5813C48.0243 24.5813 47.7477 24.6174 47.4865 24.6843V24.5813C47.4865 22.7638 46.0164 21.2861 44.2082 21.2861C43.8036 21.2861 43.4194 21.3582 43.0608 21.4921C42.5281 20.3954 41.4063 19.6385 40.1104 19.6385ZM39.2909 24.5865V22.9337C39.2909 22.4806 39.6597 22.1099 40.1104 22.1099C40.5612 22.1099 40.93 22.4806 40.93 22.9337V31.5836C40.93 32.2684 41.4781 32.8193 42.1593 32.8193C42.8406 32.8193 43.3887 32.2684 43.3887 31.5836V24.5762C43.3887 24.1231 43.7575 23.7524 44.2082 23.7524C44.659 23.7524 45.0278 24.1231 45.0278 24.5762V31.5784C45.0278 32.2632 45.5759 32.8141 46.2571 32.8141C46.9384 32.8141 47.4865 32.2632 47.4865 31.5784V27.8765C47.4865 27.4234 47.8553 27.0527 48.306 27.0527C48.7568 27.0527 49.1256 27.4234 49.1256 27.8765V36.7786C49.1205 36.8095 49.1205 36.8456 49.1153 36.8765C48.9412 40.4651 46.0778 43.3433 42.5076 43.5183C42.4769 43.5183 42.441 43.5235 42.4103 43.5286H41.7239C38.8964 43.5286 36.1868 42.401 34.1891 40.393L29.6969 35.8725C29.3793 35.5532 29.3793 35.0281 29.6969 34.7089C30.0144 34.3896 30.5369 34.3896 30.8545 34.7089L33.0929 36.9588C33.4464 37.3141 33.974 37.4171 34.435 37.2266C34.896 37.0361 35.193 36.583 35.193 36.0836V24.5813C35.193 24.1282 35.5619 23.7575 36.0126 23.7575C36.4634 23.7575 36.8322 24.1231 36.8322 24.5762V31.5836C36.8322 32.2684 37.3803 32.8193 38.0615 32.8193C38.7428 32.8193 39.2909 32.2684 39.2909 31.5836V24.5865Z" fill="#128454"/>
<path d="M6 10.5L8.33333 13L13 8" stroke="#128454" stroke-width="2" stroke-linecap="round" stroke-linejoin="round"/>
<path d="M6 20.5L8.33333 23L13 18" stroke="#128454" stroke-width="2" stroke-linecap="round" stroke-linejoin="round"/>
</svg>
