<svg width="51" height="45" viewBox="0 0 51 45" fill="none" xmlns="http://www.w3.org/2000/svg">
<path d="M17.3929 43.005H15.499C8.66405 43.005 5.24448 43.005 3.12119 40.848C0.997895 38.691 1 35.2189 1 28.2745V17.7527C1 10.8084 1 7.3362 3.1254 5.18135C5.24448 3.02018 8.66405 3.02018 15.499 3.02018H21.7131C28.5502 3.02018 32.5442 3.13802 34.6675 5.29288C36.7929 7.45194 36.7719 10.8063 36.7719 17.7506V20.2485M29.293 1V5.2087M18.7712 1V5.2087M8.24949 1V5.2087M10.4696 31.7426H18.887M10.4696 13.7716H27.3044M10.4696 22.9389H27.6906" stroke="#FD8B7C" stroke-width="2" stroke-linecap="round" stroke-linejoin="round"/>
<path d="M25.7179 35.5372C28.1558 32.2866 33.5057 28.088 35.8759 26.395C37.569 26.0564 41.2934 30.1196 41.2934 31.1354C41.2934 32.1512 33.5056 40.2776 32.1512 41.2934C30.7968 42.3092 25.0407 43.325 24.7021 43.325C24.3635 43.325 22.6705 39.6004 25.7179 35.5372Z" fill="#A3C2FF"/>
<path opacity="0.93" d="M39.4257 28.102C37.5191 25.9661 36.3765 26.0945 35.1075 26.4754C34.2174 26.6016 31.1703 30.158 29.8993 31.2943C27.8138 33.3524 25.7179 35.4736 25.5811 35.7513C25.1855 36.3932 24.8194 37.5295 24.6405 38.8005C24.3101 40.7071 23.8345 42.8514 24.4364 43.0366C25.0382 43.2218 26.7238 42.8683 28.6282 42.5884C29.8993 42.3569 30.7873 42.1044 31.4228 41.7235C32.3129 41.189 33.9628 39.3098 36.8099 36.5131C38.5923 34.6339 40.3137 33.3355 40.8229 32.0666C41.3301 30.1601 40.5704 29.1437 39.4257 28.102Z" stroke="#E46251" stroke-width="2" stroke-linecap="round" stroke-linejoin="round"/>
<circle cx="40.5597" cy="12.7946" r="8.46501" fill="#FACD5B"/>
<path d="M40.5598 23.2347C34.7937 23.2347 30.1196 18.5607 30.1196 12.7946C30.1196 7.02844 34.7937 2.35437 40.5598 2.35437C46.3259 2.35437 51 7.02844 51 12.7946C51 18.5607 46.3259 23.2347 40.5598 23.2347ZM40.5598 21.1467C42.7749 21.1467 44.8993 20.2667 46.4657 18.7004C48.032 17.1341 48.912 15.0097 48.912 12.7946C48.912 10.5794 48.032 8.45502 46.4657 6.88869C44.8993 5.32236 42.7749 4.44241 40.5598 4.44241C38.3447 4.44241 36.2203 5.32236 34.654 6.88869C33.0876 8.45502 32.2077 10.5794 32.2077 12.7946C32.2077 15.0097 33.0876 17.1341 34.654 18.7004C36.2203 20.2667 38.3447 21.1467 40.5598 21.1467ZM39.5158 15.9266H41.6038V18.0146H39.5158V15.9266ZM41.6038 14.2092V14.8826H39.5158V13.3166C39.5158 13.0397 39.6258 12.7741 39.8216 12.5783C40.0174 12.3825 40.2829 12.2725 40.5598 12.2725C40.8564 12.2725 41.1469 12.1883 41.3975 12.0296C41.648 11.871 41.8484 11.6444 41.9753 11.3763C42.1021 11.1083 42.1502 10.8097 42.114 10.5153C42.0778 10.2209 41.9587 9.9429 41.7707 9.71356C41.5826 9.48422 41.3333 9.31299 41.0518 9.2198C40.7702 9.12661 40.468 9.11529 40.1802 9.18716C39.8925 9.25903 39.6311 9.41113 39.4264 9.62576C39.2217 9.8404 39.0822 10.1087 39.0241 10.3996L36.9757 9.98927C37.1027 9.3546 37.3959 8.76503 37.8254 8.28083C38.255 7.79663 38.8054 7.43517 39.4204 7.2334C40.0354 7.03163 40.6929 6.99679 41.3258 7.13244C41.9587 7.26809 42.5442 7.56936 43.0225 8.00546C43.5007 8.44156 43.8546 8.99684 44.048 9.61454C44.2413 10.2322 44.2672 10.8902 44.1229 11.5212C43.9786 12.1521 43.6694 12.7335 43.2268 13.2058C42.7842 13.678 42.2241 14.0243 41.6038 14.2092Z" fill="#E46251"/>
</svg>
