<svg width="47" height="36" viewBox="0 0 47 36" fill="none" xmlns="http://www.w3.org/2000/svg">
<rect x="1" y="1" width="11.7861" height="14.5433" rx="2" fill="white" stroke="#C23B6C" stroke-width="2"/>
<rect x="1" y="20.3004" width="11.7861" height="14.5433" rx="2" fill="white" stroke="#C23B6C" stroke-width="2"/>
<rect x="17.543" y="1" width="11.7861" height="14.5433" rx="2" fill="white" stroke="#C23B6C" stroke-width="2"/>
<rect x="17.543" y="20.3004" width="11.7861" height="14.5433" rx="2" fill="white" stroke="#C23B6C" stroke-width="2"/>
<rect x="34.0864" y="1" width="11.7861" height="14.5433" rx="2" fill="white" stroke="#C23B6C" stroke-width="2"/>
<rect x="34.0864" y="20.3004" width="11.7861" height="14.5433" rx="2" fill="white" stroke="#C23B6C" stroke-width="2"/>
<circle cx="24.0825" cy="17.3618" r="11.8813" fill="white" stroke="#C23B6C" stroke-width="2"/>
<path d="M29.145 17.6057H27.3928V12.2686C27.3928 11.6815 26.8969 11.2012 26.2907 11.2012H21.8826C21.2765 11.2012 20.7806 11.6815 20.7806 12.2686V17.6057H19.0283C18.0475 17.6057 17.5516 18.7585 18.2459 19.4309L23.3042 24.3304C23.734 24.7467 24.4283 24.7467 24.8581 24.3304L29.9164 19.4309C30.6107 18.7585 30.1258 17.6057 29.145 17.6057Z" fill="#FACD5B" stroke="#C23B6C" stroke-width="2"/>
</svg>
