<svg width="18" height="21" viewBox="0 0 18 21" fill="none" xmlns="http://www.w3.org/2000/svg">
<path d="M12.75 12.7501C12.75 12.949 12.671 13.1398 12.5303 13.2804C12.3897 13.4211 12.1989 13.5001 12 13.5001H6C5.80109 13.5001 5.61032 13.4211 5.46967 13.2804C5.32902 13.1398 5.25 12.949 5.25 12.7501C5.25 12.5512 5.32902 12.3604 5.46967 12.2198C5.61032 12.0791 5.80109 12.0001 6 12.0001H12C12.1989 12.0001 12.3897 12.0791 12.5303 12.2198C12.671 12.3604 12.75 12.5512 12.75 12.7501ZM12 9.00011H6C5.80109 9.00011 5.61032 9.07913 5.46967 9.21978C5.32902 9.36043 5.25 9.5512 5.25 9.75011C5.25 9.94902 5.32902 10.1398 5.46967 10.2804C5.61032 10.4211 5.80109 10.5001 6 10.5001H12C12.1989 10.5001 12.3897 10.4211 12.5303 10.2804C12.671 10.1398 12.75 9.94902 12.75 9.75011C12.75 9.5512 12.671 9.36043 12.5303 9.21978C12.3897 9.07913 12.1989 9.00011 12 9.00011ZM17.25 3.00011V18.7501C17.25 19.1479 17.092 19.5295 16.8107 19.8108C16.5294 20.0921 16.1478 20.2501 15.75 20.2501H2.25C1.85218 20.2501 1.47064 20.0921 1.18934 19.8108C0.908035 19.5295 0.75 19.1479 0.75 18.7501V3.00011C0.75 2.60228 0.908035 2.22075 1.18934 1.93945C1.47064 1.65814 1.85218 1.50011 2.25 1.50011H5.64937C6.07079 1.02829 6.58709 0.650787 7.1645 0.392319C7.7419 0.133851 8.36738 0.000244141 9 0.000244141C9.63262 0.000244141 10.2581 0.133851 10.8355 0.392319C11.4129 0.650787 11.9292 1.02829 12.3506 1.50011H15.75C16.1478 1.50011 16.5294 1.65814 16.8107 1.93945C17.092 2.22075 17.25 2.60228 17.25 3.00011ZM6 4.50011H12C12 3.70446 11.6839 2.9414 11.1213 2.37879C10.5587 1.81618 9.79565 1.50011 9 1.50011C8.20435 1.50011 7.44129 1.81618 6.87868 2.37879C6.31607 2.9414 6 3.70446 6 4.50011ZM15.75 3.00011H13.2422C13.4128 3.48181 13.5 3.98909 13.5 4.50011V5.25011C13.5 5.44902 13.421 5.63979 13.2803 5.78044C13.1397 5.92109 12.9489 6.00011 12.75 6.00011H5.25C5.05109 6.00011 4.86032 5.92109 4.71967 5.78044C4.57902 5.63979 4.5 5.44902 4.5 5.25011V4.50011C4.50002 3.98909 4.58721 3.48181 4.75781 3.00011H2.25V18.7501H15.75V3.00011Z" fill="#B16140"/>
</svg>
